# xmcd
#
# Track frame offsets:
#	150
#	20018
#	39113
#	52553
#	72283
#	94278
#	113668
#	126370
#	145090
#	166798
#
# Disc length: 2486 seconds
# Revision: 0
# Processed by: cddbd v1.5.2PL0 Copyright (c) Steve Scherf et al.
# Submitted via: dBpowerAMP V12.0
#
DISCID=7909b40a
DTITLE=Various Artist - Créme De La Créme
DYEAR=1984
DGENRE=Audiophile
TTITLE0=Amanda McBroom and Lincoln Mayorga - Amanda
TTITLE1=sheffield track record, The - The Higher You Rise
TTITLE2=Lincoln Mayorga And Distinguished Colleagues - Blackbird
TTITLE3=James Newton Howard and Friends - Gone Buttlefishin'
TTITLE4=Dave Grusin - Cripple Creek Break
TTITLE5=Harry James and His Big Band - Corner Pocket
TTITLE6=Thelma Houston and Pressure Cooker - I've Got the Music in Me
TTITLE7=Adam Makowicz - Pearl Grey
TTITLE8=Tower of Power - What Is Hip
TTITLE9=Amanda McBroom and Lincoln Mayorga - Gossamer
EXTD=
EXTT0=
EXTT1=
EXTT2=
EXTT3=
EXTT4=
EXTT5=
EXTT6=
EXTT7=
EXTT8=
EXTT9=
PLAYORDER=
